<svg xmlns="http://www.w3.org/2000/svg" width="100" height="100"><path d="M83.06 62.276a4.65 4.65 0 0 0-6.58 0L54.655 84.1V4.64A4.644 4.644 0 0 0 50.015 0a4.644 4.644 0 0 0-4.642 4.641v79.46L23.518 62.276a4.65 4.65 0 0 0-6.58 0 4.664 4.664 0 0 0 .016 6.579l29.77 29.77c.106.106.226.21.346.316.06.045.105.075.165.12.06.045.135.105.196.15.06.046.135.09.21.12.06.03.12.076.18.106.015 0 .015.015.03.015l.18.09c.06.03.136.06.196.09.075.03.135.045.21.075.075.03.15.06.225.075.015 0 .015 0 .03.015l.18.045c.076.015.15.045.226.06.075.015.165.03.24.046.075.015.135.03.21.03.3.03.616.03.917 0 .075 0 .135-.015.21-.03.075-.015.165-.015.24-.03.075-.015.15-.03.226-.06.075-.016.135-.03.21-.06.075-.03.15-.046.225-.076.06-.015.12-.045.18-.06.015 0 .015-.015.03-.015.076-.03.136-.06.196-.09.075-.03.135-.06.21-.105.06-.03.12-.075.18-.105s.12-.06.18-.105c.016 0 .016-.015.03-.015a.964.964 0 0 0 .196-.15c.06-.046.105-.076.165-.12.12-.09.225-.196.346-.316l29.77-29.771c1.803-1.833 1.803-4.777 0-6.594z" fill="#e68d24"/></svg>