<svg xmlns="http://www.w3.org/2000/svg" id="Layer_1" width="52" height="54"><style id="style2">.st2{fill:#eaeaea}</style><g id="g14" transform="scale(.07396)"><g id="g8"><path d="M508.8 35H132.3C78.8 35 35 78.8 35 132.3v465.4c0 53.5 43.8 97.3 97.3 97.3H564c53.5 0 97.3-43.8 97.3-97.3V187.5z" id="path4" fill="#fff"/><path d="M508.8 35l152.5 152.5v410.2c0 53.5-43.8 97.3-97.3 97.3H132.3C78.8 695 35 651.3 35 597.7V132.3C35 78.8 78.8 35 132.3 35h376.5m0-35H132.3c-17.8 0-35.1 3.5-51.5 10.5-15.7 6.7-29.9 16.2-42 28.4C26.7 51 17.1 65.1 10.5 80.8 3.5 97.2 0 114.5 0 132.3v465.4c0 17.8 3.5 35.1 10.5 51.5 6.7 15.7 16.2 29.9 28.4 42 12.1 12.1 26.3 21.7 42 28.4 16.3 6.9 33.7 10.5 51.5 10.5H564c17.8 0 35.1-3.5 51.5-10.5 15.7-6.7 29.9-16.2 42-28.4 12.1-12.1 21.7-26.3 28.4-42 6.9-16.3 10.5-33.7 10.5-51.5V187.5c0-9.3-3.7-18.2-10.3-24.7L533.5 10.3C526.9 3.7 518 0 508.8 0z" id="path6" fill="#a7a9ac"/></g><path class="st2" d="M561.4 695H134.9C79.8 695 35 650.2 35 595.1V133.2c0-55.1 44.8-99.9 99.9-99.9h369.5c3.3 0 5.9 2.6 5.9 5.9V130c0 29.3 23.9 53.2 53.2 53.2h91.9c3.3 0 5.9 2.6 5.9 5.9v406c0 55.1-44.8 99.9-99.9 99.9zM134.9 45.1c-48.6 0-88.1 39.5-88.1 88.1v461.9c0 48.6 39.5 88.1 88.1 88.1h426.5c48.6 0 88.1-39.5 88.1-88.1V195h-86c-35.8 0-65-29.2-65-65V45.1z" id="path10" fill="#eaeaea"/><path transform="rotate(-45.203 579.904 114.153)" class="st2" id="rect12" fill="#eaeaea" d="M574 7.8h11.8v212.8H574z"/></g></svg>