<svg xmlns="http://www.w3.org/2000/svg" id="Layer_1" width="100" height="100"><style id="style2">.st0{fill:#e68d24}</style><g id="g831" transform="scale(.15024)"><path id="path4" d="M332.8 43.1c77.4 0 150.1 30.1 204.9 84.9 54.7 54.7 84.9 127.5 84.9 204.9S592.5 483 537.7 537.8c-54.7 54.7-127.5 84.9-204.9 84.9s-150.1-30.1-204.9-84.9C73.2 483.1 43 410.3 43 332.9S73.1 182.8 127.9 128c54.8-54.8 127.5-84.9 204.9-84.9m0-43.1C149 0 0 149 0 332.8s149 332.8 332.8 332.8 332.8-149 332.8-332.8S516.6 0 332.8 0z" class="st0" fill="#e68d24"/><path id="path6" d="M332.8 492.5c-97.6 0-150.2-81.2-152.4-84.7l18.2-11.5 18.2-11.6c.1.2 11 16.9 31.1 33.2 25.9 20.9 54.5 31.6 84.9 31.6 73.6 0 111-63.3 111.3-63.9l37.3 21.5c-2 3.4-50.4 85.4-148.6 85.4z" class="st0" fill="#e68d24"/><g id="g12"><circle id="circle8" r="33" cy="241.2" cx="424" class="st0" fill="#e68d24"/><circle id="circle10" r="33" cy="241.2" cx="250.3" class="st0" fill="#e68d24"/></g></g></svg>